# xmcd
#
# Track frame offsets:
# 150
# 13195
# 24342
# 36640
# 48940
# 62747
# 76345
# 95765
# 112265
# 126305
# 140882
# 152287
# 166692
# 177800
#
# Disc length: 2556 seconds
#
#
# Revision: 0
# Processed by: cddbd v1.5.1PL0 Copyright (c) Steve Scherf et al.
# Submitted via: FreeRIP 2.942 
#
DISCID=bb09fa0e
DTITLE=Amzer Zo - Amzer Zo
DYEAR=1900
DGENRE=Celtic
TTITLE0=Les alentours - En Dro
TTITLE1=Tarzh kurun - Pilé Menu
TTITLE2=Tiens bon ta bien aimée - Polka Tournée
TTITLE3=Kreizh ar mor - Cercle Circassien
TTITLE4=Dans les fest noz - An Dro
TTITLE5=En Dro des chapelles - An Dro
TTITLE6=Le vieux pécheur - Mélodie
TTITLE7=Si j'ai le courage - Rond de Saint Vincent
TTITLE8=Penn da benn - Pilé Menu
TTITLE9=Valsalex - Valse
TTITLE10=Yec'hed mat - Bourrée
TTITLE11=Entendez-vous - An Dro
TTITLE12=Borders of salt - Mélodie
TTITLE13=Diwanit bugale - Mélodie
EXTD=
EXTT0=
EXTT1=
EXTT2=
EXTT3=
EXTT4=
EXTT5=
EXTT6=
EXTT7=
EXTT8=
EXTT9=
EXTT10=
EXTT11=
EXTT12=
EXTT13=
PLAYORDER=
